<svg id="Capa_1" enable-background="new 0 0 512.001 512.001" height="512" viewBox="0 0 512.001 512.001" width="512"
  xmlns="http://www.w3.org/2000/svg">
  <g>
    <ellipse cx="256" cy="361.357" fill="#f6ee86" rx="133.817" ry="115.821"/>
    <path d="m174.591 269.437c-31.862 21.171-52.409 54.466-52.409 91.92 0 63.966 59.912 115.821 133.817 115.821 43.261 0 81.72-17.773 106.182-45.337-184.43 37.445-216.959-100.582-187.59-162.404z" fill="#efd176"/>
    <g>
      <g fill="#eda1ab">
        <ellipse cx="176.443" cy="381.548" rx="29.355" ry="23.377"/>
        <ellipse cx="335.557" cy="381.548" rx="29.355" ry="23.377"/>
      </g>
      <g fill="#4e5660">
        <path d="m207.705 321.371h-24.568c-10.322 0-18.015 9.518-15.851 19.61l1.361 6.345c2.287 10.665 11.713 18.285 22.621 18.285h8.307c10.908 0 20.334-7.619 22.621-18.285l1.361-6.345c2.163-10.092-5.531-19.61-15.852-19.61z"/>
        <path d="m306.964 321.371h24.568c10.322 0 18.015 9.518 15.851 19.61l-1.361 6.345c-2.287 10.665-11.713 18.285-22.621 18.285h-8.307c-10.908 0-20.334-7.619-22.621-18.285l-1.361-6.345c-2.163-10.092 5.531-19.61 15.852-19.61z"/>
      </g>
    </g>
    <path d="m239.651 279.738c43.877 6.351 70.055-26.177 64.718-64.918-.856-6.216-8-9.24-13.193-5.719-19.393 13.149-35.303 4.753-51.525 7.278-17.592 2.738-30.037 14.183-30.037 31.679s11.786 29.038 30.037 31.68z" fill="#8de1ce"/>
    <path d="m70.39 320.742-5.831 9.925c-3.577 6.088-12.381 6.088-15.958 0l-5.831-9.925c-2.43-4.135-5.875-7.581-10.011-10.01l-9.925-5.831c-6.088-3.577-6.088-12.381 0-15.958l9.925-5.831c4.135-2.429 7.581-5.875 10.011-10.01l5.831-9.925c3.577-6.088 12.381-6.088 15.958 0l5.831 9.925c2.429 4.135 5.875 7.581 10.01 10.01l9.925 5.831c6.089 3.577 6.089 12.381 0 15.958l-9.925 5.831c-4.135 2.429-7.581 5.874-10.01 10.01z" fill="#f6b88e"/>
    <path d="m441.611 320.742 5.831 9.925c3.577 6.088 12.381 6.088 15.957 0l5.831-9.925c2.43-4.135 5.875-7.581 10.011-10.01l9.925-5.831c6.088-3.577 6.088-12.381 0-15.958l-9.925-5.831c-4.135-2.429-7.581-5.875-10.011-10.01l-5.831-9.925c-3.577-6.088-12.38-6.088-15.957 0l-5.831 9.925c-2.43 4.135-5.875 7.581-10.01 10.01l-9.925 5.831c-6.089 3.577-6.089 12.381 0 15.958l9.925 5.831c4.135 2.429 7.581 5.874 10.01 10.01z" fill="#f6b88e"/>
    <path d="m94.536 426.868-27.012 27.011c-2.93 2.93-2.93 7.678-.001 10.607 2.928 2.928 7.677 2.931 10.607.001l27.012-27.011c2.93-2.929 2.93-7.678.001-10.606-2.929-2.93-7.678-2.931-10.607-.002zm70.988 10.051c-23.112-20.349-35.841-47.184-35.841-75.563 0-42.758 29.807-81.648 74.934-98.933 4.963 13.216 17.054 22.29 33.96 24.737 25.888 3.745 50.19-4.675 64.005-26.5 10.686 3.64 20.742 8.508 29.948 14.533 3.466 2.267 8.113 1.3 10.383-2.168 2.269-3.466 1.298-8.114-2.168-10.383-9.798-6.412-20.448-11.633-31.729-15.615 3.378-10.152 4.401-21.482 2.783-33.231-1.608-11.681-14.999-17.569-24.832-10.903-10.763 7.297-19.902 6.659-30.484 5.92-5.768-.402-11.729-.819-17.984.154-21.83 3.398-36.02 18.411-36.367 38.345-24.497 8.799-45.531 23.329-61.083 42.272-17.248 21.008-26.364 45.825-26.364 71.771 0 32.75 14.535 63.583 40.929 86.82 3.102 2.732 7.842 2.443 10.585-.673 2.735-3.107 2.433-7.845-.675-10.583zm75.28-213.128c4.704-.733 9.828-.35 14.632-.013 11.666.814 24.893 1.738 39.948-8.469.616-.415 1.458-.149 1.555.535 4.852 35.217-18.624 61.92-56.214 56.471-15.005-2.172-23.611-11.013-23.611-24.256 0-12.888 8.856-21.96 23.69-24.268zm31.418-57.747c17.953 0 33.667-6.96 44.718-20.145 2.662-3.173 2.247-7.903-.927-10.565-3.171-2.662-7.903-2.247-10.565.927-7.93 9.448-19.076 14.783-33.226 14.783-29.975 0-54.36-24.387-54.36-54.361s24.386-54.36 54.36-54.36c10.895 0 21.402 3.209 30.389 9.279 3.433 2.317 8.095 1.416 10.413-2.017 2.318-3.432 1.416-8.094-2.017-10.413-11.475-7.752-24.887-11.85-38.785-11.85-38.245 0-69.36 31.115-69.36 69.36 0 38.247 31.115 69.362 69.36 69.362zm-209.362 54.196c3.754-1.75 5.378-6.213 3.627-9.967l-42.021-90.114 106.015 62.128c8.378 4.896 17.273-2.879 12.788-12.497l-51.573-107.863c-1.787-3.737-6.265-5.316-10.002-3.531-3.737 1.787-5.317 6.265-3.531 10.002l43.737 91.475-110.608-64.821c-2.832-1.659-6.413-1.285-8.841.925-2.428 2.21-3.136 5.741-1.748 8.716l52.189 111.92c1.758 3.768 6.228 5.372 9.968 3.627zm16.876 159.552c0-4.143-3.358-7.5-7.5-7.5h-24.001c-4.143 0-7.5 3.357-7.5 7.5s3.357 7.5 7.5 7.5h24.001c4.142 0 7.5-3.358 7.5-7.5zm-8.71-45.327 5.831-9.925c.443-.57 2.43-4.457 7.342-7.343l9.925-5.831c11.018-6.474 11.034-22.407 0-28.891l-9.924-5.83c-3.027-1.779-5.566-4.318-7.343-7.344l-5.831-9.926c-6.473-11.014-22.408-11.033-28.892.001l-5.83 9.925c-1.777 3.025-4.316 5.564-7.343 7.343l-9.925 5.831c-11.018 6.474-11.033 22.407 0 28.891l9.924 5.83c3.027 1.779 5.566 4.318 7.344 7.344l5.83 9.926c6.474 11.015 22.409 11.032 28.892-.001zm-44.392-36.032c-1.161-.682-1.162-2.341 0-3.023l9.926-5.832c5.225-3.07 9.608-7.454 12.678-12.678l5.83-9.924c.681-1.161 2.343-1.162 3.024-.001l5.83 9.924c3.068 5.224 7.452 9.608 12.679 12.68l9.925 5.831c1.161.682 1.162 2.341 0 3.023l-9.926 5.832c-5.226 3.07-9.609 7.455-12.678 12.679h.001l-5.831 9.923c-.683 1.164-2.344 1.159-3.024.001l-5.83-9.925c-3.069-5.224-7.453-9.607-12.679-12.679zm143.731-135.392c.724 4.103 4.639 6.802 8.688 6.083 4.079-.719 6.803-4.608 6.083-8.688l-21.483-121.842c-.72-4.08-4.611-6.804-8.688-6.083-4.079.719-6.803 4.608-6.083 8.688zm29.21 210.071c14.348 0 26.945-10.183 29.953-24.212.75-4.654 2.783-9.044 1.453-15.866 7.327-.757 16.095-1.36 26.354-1.36 10.257 0 19.029.602 26.355 1.359-1.33 6.817.703 11.224 1.451 15.866 3.008 14.03 15.605 24.213 29.954 24.213h8.307c14.349 0 26.946-10.183 29.954-24.213l1.36-6.346c3.169-14.777-8.103-28.682-23.184-28.682h-24.568c-5.389 0-10.513 1.801-14.646 5.057-8.928-1.133-20.553-2.254-34.984-2.254-14.43 0-26.055 1.121-34.983 2.254-4.133-3.255-9.257-5.057-14.646-5.057h-24.569c-15.113 0-26.346 13.936-23.184 28.683l1.361 6.345c3.007 14.029 15.604 24.213 29.953 24.213zm107.389-44.24h24.568c5.551 0 9.678 5.119 8.518 10.537l-1.36 6.346c-1.536 7.16-7.965 12.357-15.288 12.357h-8.307c-7.323 0-13.752-5.197-15.288-12.357l-1.36-6.346c-1.163-5.428 2.976-10.537 8.517-10.537zm-130.984 16.881-1.361-6.345c-1.163-5.428 2.976-10.537 8.517-10.537h24.569c5.55 0 9.678 5.119 8.518 10.536l-1.361 6.347c-1.536 7.16-7.965 12.357-15.287 12.357h-8.308c-7.323.001-13.752-5.196-15.287-12.358zm287.786 26.539h-24.001c-4.142 0-7.5 3.357-7.5 7.5s3.358 7.5 7.5 7.5h24.001c4.143 0 7.5-3.357 7.5-7.5s-3.357-7.5-7.5-7.5zm-46.302 54.576c-2.928-2.928-7.677-2.929-10.607.001-2.929 2.929-2.929 7.678.001 10.606l27.012 27.011c2.928 2.928 7.677 2.929 10.607-.001 2.929-2.929 2.929-7.677-.001-10.607zm91.338-331.263c-3.394-2.375-8.069-1.552-10.445 1.842l-60.438 86.313c-2.376 3.393-1.552 8.069 1.842 10.445 3.394 2.377 8.07 1.551 10.445-1.842l60.438-86.313c2.376-3.392 1.552-8.069-1.842-10.445zm-15.838 186.871-9.924-5.83c-3.027-1.779-5.566-4.318-7.344-7.344l-5.83-9.926c-6.474-11.014-22.408-11.032-28.892.001l-5.832 9.926c-1.775 3.024-4.314 5.564-7.341 7.342l-9.925 5.831c-11.018 6.474-11.034 22.407 0 28.891l9.924 5.83c3.027 1.779 5.566 4.318 7.342 7.343.001.001.001.001.001.001l5.831 9.926c6.473 11.014 22.408 11.033 28.892-.001l5.83-9.925c1.777-3.025 4.316-5.564 7.343-7.343l9.925-5.831c11.018-6.475 11.034-22.407 0-28.891zm-7.597 15.957-9.926 5.832c-5.225 3.07-9.608 7.454-12.678 12.678l-5.83 9.924c-.681 1.161-2.343 1.162-3.024.001l-5.831-9.924h.001c-3.068-5.224-7.452-9.608-12.679-12.68l-9.925-5.831c-1.161-.682-1.162-2.341 0-3.023l9.926-5.832c5.226-3.07 9.609-7.455 12.677-12.678l5.831-9.924c.683-1.164 2.344-1.16 3.024-.001l5.83 9.925c3.069 5.224 7.453 9.607 12.679 12.679l9.925 5.831c1.161.682 1.161 2.341 0 3.023zm-67.305-87.796c-2.607 3.723-1.702 8.856 2.021 11.463 3.724 2.607 8.855 1.702 11.463-2.021 2.607-3.723 1.702-8.856-2.021-11.463-3.724-2.608-8.856-1.703-11.463 2.021zm-151.252 143.123c-2.73 3.132-6.669 4.928-10.81 4.928s-8.081-1.797-10.811-4.929c-2.723-3.124-7.461-3.447-10.582-.727-3.123 2.722-3.447 7.46-.727 10.582 5.58 6.401 13.642 10.073 22.119 10.073s16.54-3.672 22.118-10.074c2.722-3.122 2.396-7.86-.728-10.581-3.121-2.72-7.858-2.396-10.579.728zm91.846-67.042c-3.145 2.696-3.509 7.431-.813 10.575 16.012 18.679 24.476 40.832 24.476 64.063 0 59.729-56.666 108.321-126.317 108.321-21.888 0-43.452-4.881-62.363-14.114-3.723-1.818-8.214-.273-10.03 3.448-1.817 3.723-.273 8.213 3.448 10.03 20.949 10.229 44.79 15.636 68.945 15.636 77.923 0 141.317-55.321 141.317-123.321 0-26.862-9.712-52.391-28.087-73.825-2.696-3.143-7.43-3.508-10.576-.813zm41.461-111.129-41.492-15.103 15.834-43.503 37.913 13.799c3.9 1.415 8.198-.594 9.613-4.482 1.417-3.893-.591-8.196-4.482-9.613l-37.914-13.799 15.834-43.503 41.492 15.102c3.896 1.415 8.197-.591 9.613-4.483 1.417-3.892-.591-8.196-4.482-9.613l-48.54-17.667c-3.897-1.42-8.197.591-9.613 4.482l-41.929 115.198c-1.417 3.893.591 8.196 4.482 9.613l48.54 17.668c3.931 1.428 8.21-.627 9.613-4.483 1.417-3.892-.59-8.196-4.482-9.613z"/>
  </g>
</svg>