<svg height="512" viewBox="0 0 64 64" width="512" xmlns="http://www.w3.org/2000/svg"><g id="Man-Cat-Home-Freelance-Work"><path d="m39 3h20v22h-20z" fill="#57a4ff"/><path d="m55 3h4v22h-4z" fill="#2488ff"/><path d="m55 19v6h-12v-6a4 4 0 0 1 4-4h4a4 4 0 0 1 4 4z" fill="#ff3051"/><path d="m46 61h-9l3-4v-6a4 4 0 0 1 4-4h4a4 4 0 0 1 4 4v6l3 4z" fill="#898890"/><path d="m54 35-2 5v3a4 4 0 0 1 -4 4h-4a4 4 0 0 1 -4-4v-3l-2-5 5 2h6z" fill="#acabb1"/><circle cx="49" cy="11" fill="#ffc477" r="4"/><path d="m55 19v6h-4v-6a4 4 0 0 0 -4-4h4a4 4 0 0 1 4 4z" fill="#cd2a00"/><path d="m53 11a3.994 3.994 0 0 1 -6 3.46 3.993 3.993 0 0 0 0-6.92 3.994 3.994 0 0 1 6 3.46z" fill="#ffa733"/><path d="m35 40v21h-4v-16a2.006 2.006 0 0 0 -2-2h-10a6 6 0 0 0 6-6v-3h4a6 6 0 0 1 6 6z" fill="#91dc5a"/><path d="m31 14a3 3 0 0 1 0 6h-1v-6z" fill="#ffc477"/><path d="m31 45v16h-24v-16a2.006 2.006 0 0 1 2-2h20a2.006 2.006 0 0 1 2 2z" fill="#c6c5ca"/><path d="m30 14v5a10 10 0 0 1 -10 10h-2a9.85 9.85 0 0 1 -3.09-.49 10 10 0 0 1 -6.91-9.51v-5s3 0 7-4c0 0 1 3 0 4 0 0 7 0 10-5a7.31 7.31 0 0 1 4.95 5z" fill="#ffc477"/><path d="m30 14v5a10 10 0 0 1 -10 10h-2a8.472 8.472 0 0 1 -1.02-.06 9.142 9.142 0 0 0 1.82-.34 10 10 0 0 0 7.2-9.6v-5h-.05a6.676 6.676 0 0 0 -2.15-3.44 8.266 8.266 0 0 0 1.2-1.56 7.31 7.31 0 0 1 4.95 5z" fill="#ffa733"/><path d="m30 13v1h-.05a7.31 7.31 0 0 0 -4.95-5c-3 5-10 5-10 5 1-1 0-4 0-4-4 4-7 4-7 4v-1a10 10 0 0 1 10-10h2a10 10 0 0 1 10 10z" fill="#ffd422"/><path d="m30 13v1h-.05a7.263 7.263 0 0 0 -4.76-4.94 10.009 10.009 0 0 0 -8.17-6.01c.32-.03.65-.05.98-.05h2a10 10 0 0 1 10 10z" fill="#ebbf00"/><path d="m25 34v3a6 6 0 0 1 -12 0v-3h1l.91-5.49a9.85 9.85 0 0 0 3.09.49h2a9.973 9.973 0 0 0 2.8-.4l1.2 5.4z" fill="#ffc477"/><circle cx="19" cy="52" fill="#ff3051" r="2"/><path d="m19 43h-10a2.006 2.006 0 0 0 -2 2v16h-4v-21a6 6 0 0 1 6-6h4v3a6 6 0 0 0 6 6z" fill="#91dc5a"/><path d="m8 19v1h-1a3 3 0 0 1 0-6h1z" fill="#ffc477"/><path d="m55 61h-4l-3-4v-6a4 4 0 0 0 -4-4h4a4 4 0 0 1 4 4v6z" fill="#787680"/><path d="m54 35-2 5v3a4 4 0 0 1 -4 4h-4a4 4 0 0 0 4-4v-3l1.24-3.1z" fill="#898890"/><path d="m31 45v16h-4v-16a2.006 2.006 0 0 0 -2-2h4a2.006 2.006 0 0 1 2 2z" fill="#acabb1"/><path d="m21 52a2 2 0 0 1 -3 1.73 2 2 0 0 0 0-3.46 2 2 0 0 1 3 1.73z" fill="#cd2a00"/><path d="m35 40v21h-4v-21a6 6 0 0 0 -6-6h4a6 6 0 0 1 6 6z" fill="#5eac24"/><path d="m29 33h-4.2l-.83-3.75a11.04 11.04 0 0 0 6.84-8.25h.19a4 4 0 0 0 0-8 11.007 11.007 0 0 0 -11-11h-2a11.007 11.007 0 0 0 -11 11 4 4 0 0 0 0 8h.19a11.015 11.015 0 0 0 6.6 8.16l-.64 3.84h-4.15a7.008 7.008 0 0 0 -7 7v21a1 1 0 0 0 1 1h32a1 1 0 0 0 1-1v-21a7.008 7.008 0 0 0 -7-7zm2-18a2 2 0 0 1 0 4zm-24 4a2 2 0 0 1 0-4zm17 16v2a5 5 0 0 1 -10 0v-2a1 1 0 0 0 .99-.84l.73-4.4a11.374 11.374 0 0 0 2.28.24h2a10.532 10.532 0 0 0 2.04-.2l.98 4.42a1.015 1.015 0 0 0 .98.78zm-6-31h2a8.994 8.994 0 0 1 8.37 5.73 8.784 8.784 0 0 0 -3.12-1.7 1.009 1.009 0 0 0 -1.11.46c-1.88 3.14-5.64 4.09-7.7 4.38a9.122 9.122 0 0 0 -.49-3.19.987.987 0 0 0 -.72-.65 1.016 1.016 0 0 0 -.94.26 13.177 13.177 0 0 1 -5.28 3.5 9.008 9.008 0 0 1 8.99-8.79zm-9 15v-4.14a13.05 13.05 0 0 0 5.4-2.95 2.183 2.183 0 0 1 -.11 1.38 1 1 0 0 0 -.21 1.09.987.987 0 0 0 .92.62c.3 0 6.97-.06 10.4-4.79a6.153 6.153 0 0 1 3.59 4.04h.01v4.75a9.014 9.014 0 0 1 -9 9h-2a9.014 9.014 0 0 1 -9-9zm-3 26v15h-2v-20a5 5 0 0 1 5-5h3v2a6.97 6.97 0 0 0 2.11 5h-5.11a3.009 3.009 0 0 0 -3 3zm24 15h-22v-15a1 1 0 0 1 1-1h20a1 1 0 0 1 1 1zm4 0h-2v-15a3.009 3.009 0 0 0 -3-3h-5.11a6.97 6.97 0 0 0 2.11-5v-2h3a5 5 0 0 1 5 5z"/><path d="m22 23a1 1 0 0 0 -2 0 1 1 0 0 1 -2 0 1 1 0 0 0 -2 0 3 3 0 0 0 6 0z"/><path d="m22 20a1 1 0 0 0 1-1 1 1 0 0 1 2 0 1 1 0 0 0 2 0 3 3 0 0 0 -6 0 1 1 0 0 0 1 1z"/><path d="m17 19a3 3 0 0 0 -6 0 1 1 0 0 0 2 0 1 1 0 0 1 2 0 1 1 0 0 0 2 0z"/><path d="m19 49a3 3 0 1 0 3 3 3 3 0 0 0 -3-3zm0 4a1 1 0 1 1 1-1 1 1 0 0 1 -1 1z"/><path d="m59 2h-20a1 1 0 0 0 -1 1v22a1 1 0 0 0 1 1h20a1 1 0 0 0 1-1v-22a1 1 0 0 0 -1-1zm-5 22h-10v-5a3.009 3.009 0 0 1 3-3h4a3.009 3.009 0 0 1 3 3zm-8-13a3 3 0 1 1 3 3 3.009 3.009 0 0 1 -3-3zm12 13h-2v-5a5 5 0 0 0 -3.29-4.68 5 5 0 1 0 -7.42 0 5 5 0 0 0 -3.29 4.68v5h-2v-20h18z"/><path d="m59 48a2.979 2.979 0 0 0 -2.13.88 2.9 2.9 0 0 0 -.57 3.08l2.54 6.63a.974.974 0 0 1 -.08.95.985.985 0 0 1 -.84.46h-2.42l-2.5-3.33v-5.67a4.994 4.994 0 0 0 -2.03-4 4.994 4.994 0 0 0 2.03-4v-2.81l1.93-4.82a1 1 0 0 0 -1.3-1.3l-4.82 1.93h-5.62l-4.82-1.93a1 1 0 0 0 -1.3 1.3l1.93 4.82v2.81a4.994 4.994 0 0 0 2.03 4 4.994 4.994 0 0 0 -2.03 4v5.67l-2.8 3.73a.977.977 0 0 0 -.2.59v.01a1 1 0 0 0 .11.45.977.977 0 0 0 .89.55h20.92a3 3 0 0 0 2.52-1.37 2.951 2.951 0 0 0 .24-2.8l-2.51-6.58a.92.92 0 0 1 .12-.96.99.99 0 0 1 .71-.29 1 1 0 0 1 1 1v1a1 1 0 0 0 2 0v-1a3.009 3.009 0 0 0 -3-3zm-18-5v-3a.937.937 0 0 0 -.07-.37l-1.14-2.84 2.84 1.14a.937.937 0 0 0 .37.07h6a.937.937 0 0 0 .37-.07l2.84-1.14-1.14 2.84a.937.937 0 0 0 -.07.37v3a3.009 3.009 0 0 1 -3 3h-4a3.009 3.009 0 0 1 -3-3zm6 17v-3a1 1 0 0 0 -2 0v3h-6l1.8-2.4a.984.984 0 0 0 .2-.6v-6a3.009 3.009 0 0 1 3-3h4a3.009 3.009 0 0 1 3 3v6a.984.984 0 0 0 .2.6l1.8 2.4z"/><path d="m44 40a1 1 0 0 0 -1 1v2a1 1 0 0 0 2 0v-2a1 1 0 0 0 -1-1z"/><path d="m49 43v-2a1 1 0 0 0 -2 0v2a1 1 0 0 0 2 0z"/><path d="m46 50a1 1 0 0 0 -1 1v2a1 1 0 0 0 2 0v-2a1 1 0 0 0 -1-1z"/></g></svg>